<svg xmlns="http://www.w3.org/2000/svg" viewBox="0 0 64 64" role="img" aria-labelledby="title">
  <title>Diving Mask Favicon</title>
  <rect width="64" height="64" rx="16" fill="#082837"/>
  <path d="M45 13c5.8 0 10.5 4.7 10.5 10.5V35c0 3.6-2.9 6.5-6.5 6.5H40l-5.6 7.4c-1.2 1.6-3.6 1.6-4.8 0L24 41.5h-9c-3.6 0-6.5-2.9-6.5-6.5V23.5C8.5 17.7 13.2 13 19 13h26Z" fill="#0f5469"/>
  <path d="M29 23c-2.1 0-3.9 1.1-5 2.8-.9-1.8-2.8-2.8-5-2.8-3.2 0-5.8 2.6-5.8 5.8V34c0 1.8 1.5 3.3 3.3 3.3h9c1.1 0 2-.9 2-2v-5.5c0-1.8 1.5-3.3 3.3-3.3h2.4c1.8 0 3.3 1.5 3.3 3.3v5.5c0 1.1.9 2 2 2h9c1.8 0 3.3-1.5 3.3-3.3v-5.2c0-3.2-2.6-5.8-5.8-5.8-2.1 0-3.9 1.1-5 2.8-1.1-1.7-2.9-2.8-5-2.8H29Z" fill="#8adcf2"/>
  <path d="M23.2 37.3h17.6l-3.4 4.4h-10.8l-3.4-4.4Z" fill="#f4fbfd"/>
  <path d="M45.2 17.5c4.7 0 8.5 3.8 8.5 8.5v6.2" fill="none" stroke="#8adcf2" stroke-linecap="round" stroke-linejoin="round" stroke-width="3.2"/>
  <circle cx="46.5" cy="14" r="3.6" fill="#30b6cb"/>
  <path d="M13.8 20.5h5.8" fill="none" stroke="#30b6cb" stroke-linecap="round" stroke-width="3"/>
</svg>
